<svg xmlns="http://www.w3.org/2000/svg" width="38" height="36" viewBox="0 0 38 36">
  <g id="logo_home" transform="translate(-160 -12)">
    <g id="그룹_26" data-name="그룹 26" transform="translate(165 16)">
      <rect id="사각형_37" data-name="사각형 37" width="8" height="2" transform="translate(4 10) rotate(90)" fill="#fff"/>
      <rect id="사각형_39" data-name="사각형 39" width="2" height="2" transform="translate(8 2) rotate(90)" fill="#fff"/>
      <rect id="사각형_40" data-name="사각형 40" width="6" height="2" transform="translate(6 4) rotate(90)" fill="#fff"/>
      <rect id="사각형_41" data-name="사각형 41" width="6" height="2" transform="translate(6 18) rotate(90)" fill="#fff"/>
      <rect id="사각형_42" data-name="사각형 42" width="2" height="2" transform="translate(8 24) rotate(90)" fill="#fff"/>
      <rect id="사각형_43" data-name="사각형 43" width="4" height="2" transform="translate(10 -2) rotate(90)" fill="#fff"/>
      <rect id="사각형_45" data-name="사각형 45" width="4" height="2" transform="translate(10 26) rotate(90)" fill="#fff"/>
    </g>
    <g id="그룹_28" data-name="그룹 28">
      <g id="그룹_23" data-name="그룹 23" transform="translate(160 12)">
        <rect id="사각형_37-2" data-name="사각형 37" width="8" height="2" transform="translate(2 14) rotate(90)" fill="#fff"/>
        <rect id="사각형_38" data-name="사각형 38" width="2" height="4" transform="translate(14 2) rotate(90)" fill="#fff"/>
        <rect id="사각형_39-2" data-name="사각형 39" width="4" height="2" transform="translate(6 6) rotate(90)" fill="#fff"/>
        <rect id="사각형_40-2" data-name="사각형 40" width="4" height="2" transform="translate(4 10) rotate(90)" fill="#fff"/>
        <rect id="사각형_41-2" data-name="사각형 41" width="4" height="2" transform="translate(4 22) rotate(90)" fill="#fff"/>
        <rect id="사각형_42-2" data-name="사각형 42" width="4" height="2" transform="translate(6 26) rotate(90)" fill="#fff"/>
        <rect id="사각형_43-2" data-name="사각형 43" width="2" height="4" transform="translate(10 4) rotate(90)" fill="#fff"/>
        <rect id="사각형_44" data-name="사각형 44" width="2" height="4" transform="translate(14 32) rotate(90)" fill="#fff"/>
        <rect id="사각형_45-2" data-name="사각형 45" width="2" height="4" transform="translate(10 30) rotate(90)" fill="#fff"/>
      </g>
      <g id="그룹_24" data-name="그룹 24" transform="translate(184 14)">
        <rect id="사각형_37-3" data-name="사각형 37" width="8" height="2" transform="translate(14 12) rotate(90)" fill="#fff"/>
        <rect id="사각형_38-2" data-name="사각형 38" width="2" height="4" transform="translate(4) rotate(90)" fill="#fff"/>
        <rect id="사각형_39-3" data-name="사각형 39" width="4" height="2" transform="translate(10 4) rotate(90)" fill="#fff"/>
        <rect id="사각형_40-3" data-name="사각형 40" width="4" height="2" transform="translate(12 8) rotate(90)" fill="#fff"/>
        <rect id="사각형_41-3" data-name="사각형 41" width="4" height="2" transform="translate(12 20) rotate(90)" fill="#fff"/>
        <rect id="사각형_42-3" data-name="사각형 42" width="4" height="2" transform="translate(10 24) rotate(90)" fill="#fff"/>
        <rect id="사각형_43-3" data-name="사각형 43" width="2" height="4" transform="translate(8 2) rotate(90)" fill="#fff"/>
        <rect id="사각형_44-2" data-name="사각형 44" width="2" height="4" transform="translate(4 30) rotate(90)" fill="#fff"/>
        <rect id="사각형_45-3" data-name="사각형 45" width="2" height="4" transform="translate(8 28) rotate(90)" fill="#fff"/>
      </g>
      <rect id="사각형_273" data-name="사각형 273" width="2" height="10" transform="translate(184 46) rotate(90)" fill="#fff"/>
      <rect id="사각형_274" data-name="사각형 274" width="2" height="10" transform="translate(184 12) rotate(90)" fill="#fff"/>
    </g>
    <rect id="사각형_275" data-name="사각형 275" width="2" height="34" transform="translate(178 14)" fill="#fff"/>
    <rect id="사각형_276" data-name="사각형 276" width="2" height="34" transform="translate(196 22) rotate(90)" fill="#fff"/>
    <rect id="사각형_277" data-name="사각형 277" width="2" height="34" transform="translate(196 36) rotate(90)" fill="#fff"/>
    <g id="그룹_29" data-name="그룹 29" transform="translate(183 14)">
      <rect id="사각형_37-4" data-name="사각형 37" width="8" height="2" transform="translate(8 12) rotate(90)" fill="#fff"/>
      <rect id="사각형_39-4" data-name="사각형 39" width="2" height="2" transform="translate(4 4) rotate(90)" fill="#fff"/>
      <rect id="사각형_40-4" data-name="사각형 40" width="6" height="2" transform="translate(6 6) rotate(90)" fill="#fff"/>
      <rect id="사각형_41-4" data-name="사각형 41" width="6" height="2" transform="translate(6 20) rotate(90)" fill="#fff"/>
      <rect id="사각형_42-4" data-name="사각형 42" width="2" height="2" transform="translate(4 26) rotate(90)" fill="#fff"/>
      <rect id="사각형_43-4" data-name="사각형 43" width="4" height="2" transform="translate(2) rotate(90)" fill="#fff"/>
      <rect id="사각형_45-4" data-name="사각형 45" width="4" height="2" transform="translate(2 28) rotate(90)" fill="#fff"/>
    </g>
  </g>
</svg>
